<?xml version="1.0" encoding="utf-8"?>
<!-- Generator: Adobe Illustrator 16.0.0, SVG Export Plug-In . SVG Version: 6.00 Build 0)  -->
<!DOCTYPE svg PUBLIC "-//W3C//DTD SVG 1.1//EN" "http://www.w3.org/Graphics/SVG/1.1/DTD/svg11.dtd">
<svg version="1.1" id="Vrstva_1" xmlns="http://www.w3.org/2000/svg" xmlns:xlink="http://www.w3.org/1999/xlink" x="0px" y="0px"
	 width="594.315px" height="595.28px" viewBox="0 0 594.315 595.28" enable-background="new 0 0 594.315 595.28"
	 xml:space="preserve">
<path fill="#FFFFFF" d="M561.543,0.309H32.779C14.674,0.32-0.003,15.006,0,33.118v528.763c0.011,18.107,14.695,32.784,32.808,32.779
	h284.683V364.814h-77.196v-89.966h77.196v-66.208c0-76.778,46.873-118.569,115.362-118.569c32.805,0,60.995,2.445,69.212,3.537
	v80.247h-47.229c-37.263,0-44.478,17.707-44.478,43.695v57.298h89.095l-11.608,89.966h-77.487V594.66h151.185
	c18.117,0.005,32.805-14.676,32.809-32.792V33.088C594.345,14.983,579.656,0.306,561.543,0.309L561.543,0.309z M561.543,0.309"/>
</svg>
