<?xml version="1.0" encoding="utf-8"?>
<!-- Generator: Adobe Illustrator 16.0.0, SVG Export Plug-In . SVG Version: 6.00 Build 0)  -->
<!DOCTYPE svg PUBLIC "-//W3C//DTD SVG 1.1//EN" "http://www.w3.org/Graphics/SVG/1.1/DTD/svg11.dtd">
<svg version="1.1" id="Vrstva_1" xmlns="http://www.w3.org/2000/svg" xmlns:xlink="http://www.w3.org/1999/xlink" x="0px" y="0px"
	 width="639.375px" height="447.66px" viewBox="0 0 639.375 447.66" enable-background="new 0 0 639.375 447.66"
	 xml:space="preserve">
<path fill="#FFFFFF" d="M626.2,70.046c-7.368-27.39-28.965-48.984-56.353-56.359C519.817,0,319.68,0,319.68,0
	S119.551,0,69.516,13.167c-26.859,7.368-48.98,29.493-56.351,56.879C0,120.074,0,223.832,0,223.832s0,104.272,13.165,153.781
	C20.543,405,42.129,426.593,69.52,433.968c50.559,13.692,250.168,13.692,250.168,13.692s200.129,0,250.159-13.168
	c27.392-7.371,48.984-28.965,56.36-56.353c13.164-50.035,13.164-153.784,13.164-153.784S639.899,120.074,626.2,70.046L626.2,70.046z
	 M255.961,319.683V127.976l166.422,95.856L255.961,319.683z M255.961,319.683"/>
</svg>
